<svg version="1.1" xmlns="http://www.w3.org/2000/svg" viewBox="-28.293918546319677 -10.85653824200065 56.58783709263935 21.7130764840013" fill="none" stroke="black" stroke-width="0.6%" vector-effect="non-scaling-stroke">
    <path d="M -27.03373 1.25441 L -1.99056 9.35132 A 8 0.67629 180 0 0 7.28296 9.84399 L 7.77294 9.83454 L 21.31761 9.53516 L 22.27171 9.50856 A 8 0.67629 180 0 0 27.29392 8.88086" />
    <path d="M -27.03373 -8.70979 L -1.99056 -0.61288 A 8 0.67629 180 0 0 7.28296 -0.12021 L 7.77294 -0.12966 L 21.31761 -0.42904 L 22.27171 -0.45564 A 8 0.67629 180 0 0 27.29392 -1.08334 L 27.29392 8.88086" />
    <path d="M 7.28296 9.84399 L 7.28296 -0.12021" />
    <path d="M 7.77294 9.83454 L 7.77294 -0.12966" />
    <path d="M 21.31761 9.53516 L 21.31761 -0.42904" />
    <path d="M 22.27171 9.50856 L 22.27171 -0.45564" />
    <path d="M 27.29392 -1.08334 A 8 0.67629 180 0 0 27.03373 -1.25441 L 1.99056 -9.35132 A 8 0.67629 180 0 0 -7.28296 -9.84399 L -7.77294 -9.83454 L -21.31761 -9.53516 L -22.27171 -9.50856 A 8 0.67629 180 0 0 -27.29392 -8.88086 L -27.29392 1.08334 A 8 0.67629 180 0 0 -27.03373 1.25441 L -27.03373 -8.70979" />
    <path d="M -27.29392 -8.88086 A 8 0.67629 180 0 0 -27.03373 -8.70979" />
    <path d="M -1.99056 9.35132 L -1.99056 -0.61288" />
</svg>